Coordinates
version=1
nRows=10
nColumns=63
inDegrees=yes

Units are S.I. units (second, meters, Newtons, ...)
If the header above contains a line with 'inDegrees', this indicates whether rotational values are in degrees (yes) or radians (no).

endheader
time	pelvis_tilt	pelvis_list	pelvis_rotation	pelvis_tx	pelvis_ty	pelvis_tz	hip_flexion_r	hip_adduction_r	hip_rotation_r	knee_angle_r	knee_angle_r_beta	ankle_angle_r	subtalar_angle_r	mtp_angle_r	hip_flexion_l	hip_adduction_l	hip_rotation_l	knee_angle_l	knee_angle_l_beta	ankle_angle_l	subtalar_angle_l	mtp_angle_l	L5_S1_Flex_Ext	L5_S1_Lat_Bending	L5_S1_axial_rotation	L4_L5_Flex_Ext	L4_L5_Lat_Bending	L4_L5_axial_rotation	L3_L4_Flex_Ext	L3_L4_Lat_Bending	L3_L4_axial_rotation	L2_L3_Flex_Ext	L2_L3_Lat_Bending	L2_L3_axial_rotation	L1_L2_Flex_Ext	L1_L2_Lat_Bending	L1_L2_axial_rotation	L1_T12_Flex_Ext	L1_T12_Lat_Bending	L1_T12_axial_rotation	Abs_r3	Abs_r2	Abs_r1	Abs_t1	Abs_t2	neck_flexion	neck_bending	neck_rotation	arm_flex_r	arm_add_r	arm_rot_r	elbow_flex_r	pro_sup_r	wrist_flex_r	wrist_dev_r	arm_flex_l	arm_add_l	arm_rot_l	elbow_flex_l	pro_sup_l	wrist_flex_l	wrist_dev_l
4.924528	3.454852	-5.762979	96.134337	0.178718	0.755079	0.791858	8.996649	0.254087	6.602382	3.582411	0.062525	26.668510	-9.662217	0.000000	11.129031	-0.493929	-1.646754	9.127702	0.159308	34.408887	8.318024	0.000000	0.598058	0.312531	-0.598297	1.110654	0.415666	-0.635691	0.982550	0.759888	-0.635691	0.683521	0.759888	-0.523510	0.555357	0.637313	-0.486116	0.341731	0.484110	-0.448723	4.271872	3.535412	-3.327549	0.000000	0.000000	28.414369	10.575153	7.665334	8.442186	-16.549848	6.892388	51.800069	86.029916	-11.759898	3.564680	-0.079598	-19.898302	-5.997752	55.877046	87.977751	-13.141612	6.282687
4.943396	3.355139	-5.809623	95.867450	0.178506	0.754816	0.791622	9.237731	0.153487	5.963696	4.098014	0.071524	27.324840	-8.523092	0.000000	10.990959	-0.357599	-1.311181	8.858944	0.154618	34.401786	7.694127	0.000000	0.583441	0.344178	-0.539750	1.083508	0.457757	-0.573485	0.958535	0.836835	-0.573485	0.666814	0.836835	-0.472282	0.541783	0.701848	-0.438547	0.333378	0.533132	-0.404813	4.167458	3.893414	-3.001930	0.000000	0.000000	28.405246	9.616550	5.485613	7.937024	-16.548843	6.221739	52.073121	85.745302	-11.495658	3.428932	0.894827	-19.940601	-4.114275	54.963995	87.998725	-13.419683	5.832949
4.962264	3.235815	-5.919947	95.530786	0.178411	0.754505	0.791431	9.568426	0.035521	5.252164	4.638519	0.080957	28.022512	-7.154037	0.000000	10.911440	-0.211287	-1.163554	8.574532	0.149654	34.412283	7.214963	0.000000	0.579710	0.372029	-0.460598	1.076579	0.494799	-0.489386	0.952405	0.904551	-0.489386	0.662550	0.904551	-0.403023	0.538318	0.758641	-0.374236	0.331246	0.576273	-0.345449	4.140808	4.208466	-2.561709	0.000000	0.000000	28.399380	8.492235	2.759528	7.468953	-16.348921	5.316189	52.342222	85.451372	-11.267587	3.661462	2.032048	-19.859430	-1.494620	53.887606	88.048511	-13.912851	5.189985
4.981132	3.120114	-6.084491	95.121845	0.178419	0.754154	0.791188	9.954455	-0.060820	4.736329	5.155396	0.089979	28.652697	-5.924148	0.000000	10.857929	-0.070369	-0.881803	8.229080	0.143625	34.335636	6.453307	0.000000	0.586654	0.403121	-0.385517	1.089475	0.536151	-0.409612	0.963814	0.980148	-0.409612	0.670487	0.980148	-0.337328	0.544767	0.822044	-0.313233	0.335214	0.624434	-0.289138	4.190411	4.560183	-2.144132	0.000000	0.000000	28.396786	7.556441	0.149841	7.143982	-16.003546	4.496616	52.511567	85.155664	-11.123883	4.250731	3.196184	-19.667938	1.645329	52.719998	88.121533	-14.554641	4.339327
5.000000	3.003681	-6.317325	94.642521	0.178535	0.753756	0.790873	10.409015	-0.142800	4.330221	5.640798	0.098451	29.224177	-4.712783	0.000000	10.851734	0.064072	-0.578109	7.837546	0.136791	34.186666	5.561065	0.000000	0.605457	0.437315	-0.319001	1.124394	0.581629	-0.338939	0.994705	1.063288	-0.338939	0.691977	1.063288	-0.279126	0.562227	0.891773	-0.259188	0.345958	0.677401	-0.239251	4.324718	4.946996	-1.774188	0.000000	0.000000	28.396879	6.771548	-2.343027	6.971967	-15.540153	3.847703	52.554516	84.924297	-10.969239	5.171789	4.312773	-19.374639	5.090328	51.542524	88.223821	-15.072087	3.366412
5.018868	2.888288	-6.606523	94.108161	0.178761	0.753334	0.790479	10.902991	-0.204615	4.156456	6.061425	0.105792	29.663472	-3.721342	0.000000	10.882142	0.189002	-0.176318	7.405982	0.129259	33.912997	4.441172	0.000000	0.632043	0.476012	-0.276860	1.173767	0.633097	-0.294164	1.038383	1.157377	-0.294164	0.722362	1.157377	-0.242253	0.586915	0.970685	-0.224949	0.361149	0.737343	-0.207645	4.514619	5.384748	-1.539815	0.000000	0.000000	28.399326	6.234429	-4.456702	7.016495	-14.994691	3.589904	52.421996	84.782026	-10.799468	6.300245	5.323052	-18.981146	8.741713	50.379042	88.349943	-15.687792	2.200803
5.037736	2.764577	-6.948677	93.505137	0.179170	0.752879	0.790053	11.438387	-0.245103	4.229206	6.417443	0.112006	29.952787	-2.968706	0.000000	10.950587	0.303946	0.280386	6.942147	0.121163	33.504750	3.110777	0.000000	0.662665	0.517306	-0.259382	1.230635	0.688017	-0.275593	1.088692	1.257777	-0.275593	0.757359	1.257777	-0.226959	0.615350	1.054890	-0.210748	0.378647	0.801307	-0.194536	4.733347	5.851867	-1.442604	0.000000	0.000000	28.403083	5.934289	-6.146428	7.303741	-14.394229	3.832017	52.103786	84.736442	-10.604892	7.491752	6.193674	-18.496717	12.460146	49.299474	88.494094	-16.395743	0.951351
5.056604	2.608186	-7.346253	92.876239	0.179726	0.752361	0.789578	12.002849	-0.302351	4.458980	6.690108	0.116764	30.109663	-2.397107	0.000000	11.069445	0.434105	0.747038	6.472594	0.112968	32.970369	1.682929	0.000000	0.695536	0.557727	-0.270298	1.291680	0.741776	-0.287191	1.142696	1.356057	-0.287191	0.794928	1.356057	-0.236511	0.645875	1.137316	-0.219617	0.397429	0.863919	-0.202723	4.968143	6.309115	-1.503315	0.000000	0.000000	28.407652	5.910581	-7.276321	7.789753	-13.775520	4.567035	51.707741	84.802945	-10.399998	8.748145	6.861797	-17.946675	16.034822	48.387159	88.640250	-17.139608	-0.310713
5.075472	2.422336	-7.787426	92.211134	0.180488	0.751788	0.789071	12.584832	-0.358012	4.939586	6.876066	0.120010	30.100854	-2.127186	0.000000	11.232778	0.569912	1.238034	6.000644	0.104731	32.302169	0.111572	0.000000	0.728982	0.594818	-0.295354	1.353792	0.791108	-0.313814	1.197644	1.446240	-0.313814	0.833153	1.446240	-0.258435	0.676932	1.212953	-0.239975	0.416540	0.921373	-0.221516	5.207043	6.728699	-1.642672	0.000000	0.000000	28.412997	5.983038	-8.089100	8.435942	-13.164819	5.734676	51.223993	84.927748	-10.208391	9.891085	7.386682	-17.307418	19.493897	47.655292	88.792039	-18.050142	-1.401781
5.094340	2.196877	-8.267561	91.541942	0.181411	0.751153	0.788497	13.173093	-0.435855	5.530555	6.976702	0.121766	29.989215	-2.002306	0.000000	11.437191	0.731518	1.846568	5.524844	0.096427	31.517018	-1.647567	0.000000	0.762711	0.626112	-0.327030	1.416430	0.832729	-0.347469	1.253057	1.522329	-0.347469	0.871702	1.522329	-0.286151	0.708253	1.276768	-0.265712	0.435813	0.969848	-0.245273	5.447965	7.082705	-1.818843	0.000000	0.000000	28.419795	6.030946	-8.694366	9.137447	-12.598212	7.201536	50.775706	85.098161	-10.070625	10.965347	7.808605	-16.628432	22.857915	47.097009	88.927479	-19.259452	-2.300285
